<?xml version="1.0" encoding="UTF-8"?>
<svg id="Layer_1" xmlns="http://www.w3.org/2000/svg" version="1.1" viewBox="0 0 384 384">
  <!-- Generator: Adobe Illustrator 29.5.1, SVG Export Plug-In . SVG Version: 2.1.0 Build 141)  -->
  <defs>
    <style>
      .st0 {
        fill: #21e786;
      }
    </style>
  </defs>
  <path class="st0" d="M0,79.35c3.25-15.93,15.96-29.15,32.64-30.68,36.6-3.36,78.27,2.41,115.4.08,17.18,2.29,30.41,15.95,31.99,33.19-1.75,41.17,2.23,84.1,0,125.06-2.16,39.75-29.93,80.23-42.63,117.64-4.05,6.28-10.95,10.7-18.53,11.45-9.26.92-33.73,1.16-42.68-.06-5.17-.7-9.34-5.01-10.13-10.11l17.94-97.61H31.12c-13.77,0-29.45-17.59-31.12-30.69v-118.27Z"/>
  <path class="st0" d="M384,79.35v130.25c-4.89,39.54-28.01,75.19-41.36,112.55-3.24,7.19-10.6,12.7-18.46,13.76-8.62,1.17-35.43,1.29-43.99.13-6.47-.88-11.14-7.23-10.11-13.69l17.91-94.04h-52.88c-13.64,0-30.68-18.17-31.03-31.9,2.34-37.05-3.44-78.64-.08-115.17,1.54-16.74,15.89-31.03,32.62-32.56,36.42-3.34,77.79,2.46,114.73,0,15.5,1.28,30.67,15.27,32.64,30.68Z"/>
</svg>