<?xml version="1.0" encoding="UTF-8"?>
<svg id="Layer_1" xmlns="http://www.w3.org/2000/svg" version="1.1" viewBox="0 0 227.29 227.29">
  <!-- Generator: Adobe Illustrator 29.5.1, SVG Export Plug-In . SVG Version: 2.1.0 Build 141)  -->
  <defs>
    <style>
      .st0 {
        fill: #848484;
      }
    </style>
  </defs>
  <path class="st0" d="M90.48,110.17H19.69c-10.86,0-19.69-8.83-19.69-19.69V19.69C0,8.83,8.83,0,19.69,0h70.79c10.86,0,19.69,8.83,19.69,19.69v70.79c0,10.86-8.83,19.69-19.69,19.69ZM19.69,15c-2.59,0-4.69,2.1-4.69,4.69v70.79c0,2.59,2.1,4.69,4.69,4.69h70.79c2.59,0,4.69-2.1,4.69-4.69V19.69c0-2.59-2.1-4.69-4.69-4.69H19.69Z"/>
  <path class="st0" d="M207.6,110.17h-70.79c-10.86,0-19.69-8.83-19.69-19.69V19.69c0-10.86,8.83-19.69,19.69-19.69h70.79c10.86,0,19.69,8.83,19.69,19.69v70.79c0,10.86-8.83,19.69-19.69,19.69ZM136.81,15c-2.59,0-4.69,2.1-4.69,4.69v70.79c0,2.59,2.1,4.69,4.69,4.69h70.79c2.59,0,4.69-2.1,4.69-4.69V19.69c0-2.59-2.1-4.69-4.69-4.69h-70.79Z"/>
  <path class="st0" d="M90.48,227.29H19.69c-10.86,0-19.69-8.83-19.69-19.69v-70.79c0-10.86,8.83-19.69,19.69-19.69h70.79c10.86,0,19.69,8.83,19.69,19.69v70.79c0,10.86-8.83,19.69-19.69,19.69ZM19.69,132.12c-2.59,0-4.69,2.1-4.69,4.69v70.79c0,2.59,2.1,4.69,4.69,4.69h70.79c2.59,0,4.69-2.1,4.69-4.69v-70.79c0-2.59-2.1-4.69-4.69-4.69H19.69Z"/>
  <path class="st0" d="M207.6,227.29h-70.79c-10.86,0-19.69-8.83-19.69-19.69v-70.79c0-10.86,8.83-19.69,19.69-19.69h70.79c10.86,0,19.69,8.83,19.69,19.69v70.79c0,10.86-8.83,19.69-19.69,19.69ZM136.81,132.12c-2.59,0-4.69,2.1-4.69,4.69v70.79c0,2.59,2.1,4.69,4.69,4.69h70.79c2.59,0,4.69-2.1,4.69-4.69v-70.79c0-2.59-2.1-4.69-4.69-4.69h-70.79Z"/>
</svg>